<!DOCTYPE svg PUBLIC "-//W3C//DTD SVG 20010904//EN" "http://www.w3.org/TR/2001/REC-SVG-20010904/DTD/svg10.dtd">
<svg version="1.0" xmlns="http://www.w3.org/2000/svg" width="1024px" height="1024px" viewBox="0 0 10240 10240"
     preserveAspectRatio="xMidYMid meet">
    <g id="layer101" fill="#000000" stroke="none">
        <path d="M610 9568 c22 -62 754 -2112 1627 -4556 l1587 -4442 1304 2 1305 3 1624 4545 c892 2500 1623 4548 1623 4553 0 4 -585 7 -1299 7 -1228 0 -1299 -1 -1306 -17 -4 -10 -104 -290 -222 -623 -118 -333 -220 -617 -225 -633 l-10 -27 -1495 2 -1496 3 -226 647 -226 648 -1302 0 -1303 0 40 -112z m5727 -2198 c45 -27 54 -49 112 -265 102 -382 140 -631 148 -962 7 -291 -9 -469 -63 -684 -82 -330 -236 -625 -457 -873 l-43 -49 22 -84 c51 -188 56 -425 15 -587 -25 -96 -95 -246 -149 -317 -48 -64 -72 -140 -72 -225 0 -59 2 -64 33 -88 17 -13 45 -28 60 -32 35 -8 18 -24 -26 -24 l-28 0 18 -31 c10 -17 50 -61 88 -96 69 -64 69 -65 35 -58 -64 13 -181 67 -229 105 -54 42 -110 108 -135 157 l-16 32 -104 -50 c-252 -120 -530 -141 -781 -58 -49 17 -114 43 -142 60 -29 16 -55 29 -58 29 -2 0 -17 -19 -31 -42 -61 -99 -157 -171 -285 -213 -44 -15 -82 -25 -85 -23 -2 3 21 26 51 52 30 26 68 66 84 90 l30 44 -42 7 -42 8 31 9 c17 6 44 20 60 33 28 22 29 27 29 107 -1 82 -1 85 -67 218 -75 154 -101 228 -123 354 -20 118 -20 359 1 511 l17 120 -26 130 c-53 265 -62 347 -61 580 0 190 3 234 23 325 59 275 166 471 354 645 118 110 264 204 485 311 105 52 192 99 192 105 0 20 -41 85 -63 99 -16 11 -54 15 -138 15 -111 0 -117 1 -164 30 -75 46 -109 101 -113 183 -3 44 1 79 10 102 l15 35 16 -56 c20 -66 65 -132 106 -154 17 -8 48 -15 70 -15 l40 0 -15 43 c-17 46 -13 151 7 188 11 21 12 20 28 -17 37 -82 100 -134 163 -134 l33 0 0 128 c0 78 4 135 12 147 10 18 12 16 26 -17 9 -21 34 -64 56 -97 116 -170 245 -183 398 -38 29 27 70 72 90 99 20 26 40 48 45 48 13 0 28 -73 28 -135 0 -82 -32 -133 -112 -175 -32 -17 -58 -38 -58 -46 0 -19 2 -19 67 24 144 93 226 169 301 278 70 104 212 213 277 214 11 0 34 -9 52 -20z"/>
        <path d="M6255 6984 c-61 -296 -139 -456 -439 -909 -230 -346 -252 -382 -321 -527 -88 -186 -116 -302 -116 -472 0 -56 5 -125 12 -154 11 -52 11 -52 50 -52 l39 0 -7 43 c-5 23 -8 105 -7 182 1 126 4 150 32 240 60 197 140 344 366 680 267 396 358 560 424 765 30 93 57 208 50 215 -1 2 -20 6 -40 10 -35 7 -37 5 -43 -21z"/>
        <path d="M5302 6825 c-16 -21 -22 -42 -22 -81 0 -30 3 -54 8 -54 15 0 192 83 192 91 0 19 -73 62 -113 66 -39 5 -46 2 -65 -22z"/>
        <path d="M5007 4684 c-395 -61 -618 -218 -673 -476 -16 -77 -18 -215 -3 -309 11 -73 52 -184 91 -248 37 -60 110 -132 163 -159 73 -39 177 -38 259 2 71 35 188 143 236 220 19 30 38 55 41 56 3 0 27 -33 52 -74 55 -86 144 -173 213 -207 73 -35 189 -34 264 3 173 86 285 272 297 498 20 371 -248 639 -700 699 -96 13 -128 13 -240 -5z m177 -150 c30 -74 47 -203 34 -251 -5 -18 -20 -41 -35 -53 -68 -54 -143 11 -143 123 0 66 37 186 76 245 21 32 36 18 68 -64z m404 -313 c41 -21 121 -94 148 -136 l18 -28 -45 -38 c-67 -59 -125 -84 -191 -83 -72 0 -125 34 -182 117 l-40 57 45 46 c24 25 60 54 79 64 46 25 121 25 168 1z m-798 -14 c31 -13 77 -38 103 -56 l47 -32 -24 -41 c-57 -95 -142 -157 -217 -158 -44 0 -144 49 -183 89 l-28 29 22 43 c36 71 70 110 114 130 54 25 99 23 166 -4z"/>
    </g>

</svg>